<mxfile host="app.diagrams.net" modified="2023-06-29T21:01:08.110Z" agent="Mozilla/5.0 (Windows NT 10.0; Win64; x64) AppleWebKit/537.36 (KHTML, like Gecko) Chrome/114.0.0.0 Safari/537.36" etag="LZqx2rHrniLJYRIin7sP" version="21.1.2" type="device">
  <diagram name="Page-1" id="QLSNw7rtbppW8CbjKCZ5">
    <mxGraphModel dx="1354" dy="1745" grid="1" gridSize="10" guides="1" tooltips="1" connect="1" arrows="1" fold="1" page="1" pageScale="1" pageWidth="850" pageHeight="1100" math="0" shadow="0">
      <root>
        <mxCell id="0" />
        <mxCell id="1" parent="0" />
        <mxCell id="l9TS1NSM70hehsGQjQGI-15" value="" style="rounded=0;whiteSpace=wrap;html=1;strokeColor=none;fillColor=#fff2cc;" parent="1" vertex="1">
          <mxGeometry x="80" y="-10" width="330" height="640" as="geometry" />
        </mxCell>
        <mxCell id="l9TS1NSM70hehsGQjQGI-3" value="&lt;b style=&quot;font-size: 21px;&quot;&gt;FamyUs&lt;/b&gt;" style="text;html=1;strokeColor=none;fillColor=none;align=center;verticalAlign=middle;whiteSpace=wrap;rounded=0;fontSize=21;" parent="1" vertex="1">
          <mxGeometry x="100" width="60" height="30" as="geometry" />
        </mxCell>
        <mxCell id="l9TS1NSM70hehsGQjQGI-5" value="APP" style="rounded=1;whiteSpace=wrap;html=1;strokeColor=none;" parent="1" vertex="1">
          <mxGeometry x="180" y="30" width="120" height="60" as="geometry" />
        </mxCell>
        <mxCell id="_x7RNtQJToDU6tfmcFHI-9" style="edgeStyle=orthogonalEdgeStyle;rounded=1;orthogonalLoop=1;jettySize=auto;html=1;exitX=0;exitY=0.5;exitDx=0;exitDy=0;startArrow=classic;startFill=1;endArrow=none;endFill=0;" edge="1" parent="1" source="l9TS1NSM70hehsGQjQGI-6">
          <mxGeometry relative="1" as="geometry">
            <mxPoint x="160" y="400" as="targetPoint" />
          </mxGeometry>
        </mxCell>
        <mxCell id="l9TS1NSM70hehsGQjQGI-6" value="CORE" style="rounded=1;whiteSpace=wrap;html=1;strokeColor=none;" parent="1" vertex="1">
          <mxGeometry x="180" y="100" width="120" height="60" as="geometry" />
        </mxCell>
        <mxCell id="l9TS1NSM70hehsGQjQGI-7" value="DATA" style="rounded=1;whiteSpace=wrap;html=1;strokeColor=none;rotation=-90;" parent="1" vertex="1">
          <mxGeometry x="140" y="222.82" width="128.75" height="44.37" as="geometry" />
        </mxCell>
        <mxCell id="l9TS1NSM70hehsGQjQGI-8" value="DATABASE" style="rounded=1;whiteSpace=wrap;html=1;strokeColor=none;" parent="1" vertex="1">
          <mxGeometry x="240" y="180" width="120" height="60" as="geometry" />
        </mxCell>
        <mxCell id="l9TS1NSM70hehsGQjQGI-9" value="REPOSITORY" style="rounded=1;whiteSpace=wrap;html=1;strokeColor=none;" parent="1" vertex="1">
          <mxGeometry x="240" y="250" width="120" height="60" as="geometry" />
        </mxCell>
        <mxCell id="l9TS1NSM70hehsGQjQGI-10" value="DOMAIN" style="rounded=1;whiteSpace=wrap;html=1;strokeColor=none;" parent="1" vertex="1">
          <mxGeometry x="180" y="330" width="120" height="60" as="geometry" />
        </mxCell>
        <mxCell id="l9TS1NSM70hehsGQjQGI-11" value="HOME" style="rounded=1;whiteSpace=wrap;html=1;strokeColor=none;fillColor=#d5e8d4;" parent="1" vertex="1">
          <mxGeometry x="240" y="410" width="120" height="60" as="geometry" />
        </mxCell>
        <mxCell id="_x7RNtQJToDU6tfmcFHI-8" style="edgeStyle=orthogonalEdgeStyle;rounded=0;orthogonalLoop=1;jettySize=auto;html=1;exitX=0.5;exitY=0;exitDx=0;exitDy=0;entryX=0;entryY=0.5;entryDx=0;entryDy=0;" edge="1" parent="1" source="l9TS1NSM70hehsGQjQGI-12" target="l9TS1NSM70hehsGQjQGI-10">
          <mxGeometry relative="1" as="geometry" />
        </mxCell>
        <mxCell id="l9TS1NSM70hehsGQjQGI-12" value="FEATURE" style="rounded=1;whiteSpace=wrap;html=1;strokeColor=none;rotation=-90;fillColor=#d5e8d4;" parent="1" vertex="1">
          <mxGeometry x="100" y="490" width="208.75" height="44.37" as="geometry" />
        </mxCell>
        <mxCell id="l9TS1NSM70hehsGQjQGI-13" value="NOTE" style="rounded=1;whiteSpace=wrap;html=1;strokeColor=none;" parent="1" vertex="1">
          <mxGeometry x="240" y="480" width="120" height="60" as="geometry" />
        </mxCell>
        <mxCell id="l9TS1NSM70hehsGQjQGI-14" value="AUTHENTICATION" style="rounded=1;whiteSpace=wrap;html=1;strokeColor=none;" parent="1" vertex="1">
          <mxGeometry x="240" y="550" width="120" height="60" as="geometry" />
        </mxCell>
      </root>
    </mxGraphModel>
  </diagram>
</mxfile>
